<svg width="156" height="35" viewBox="0 0 156 35" fill="none" xmlns="http://www.w3.org/2000/svg">
<path d="M4.9096 21.308C3.2444 21.3444 1.67302 21.8844 1.09548 22.1499C0.696936 22.2387 0.584353 24.1423 0.817935 24.9427C1.0048 25.583 1.27989 25.6817 1.39407 25.651C6.18979 24.3615 12.221 25.2987 14.6371 25.9285C20.6335 27.1372 26.1842 25.4316 28.21 24.4278C28.5789 24.2698 28.755 22.8119 28.797 22.1027C28.9239 20.7169 28.4132 20.6755 28.142 20.828C22.9532 23.4426 17.118 22.929 14.849 22.3453C15.1731 22.1847 15.9571 21.025 16.3086 20.4652C16.7644 19.7243 17.2601 18.9625 17.5552 17.8819C17.8421 16.8314 18.4433 15.4038 18.6487 15.0976C21.3188 11.7496 23.7537 11.4292 24.6373 11.6874C24.4283 14.4618 21.9912 16.2129 20.7988 16.7417C20.229 16.8766 19.0339 17.5138 18.8121 18.9839C18.5903 20.4541 19.2902 20.7165 19.6679 20.6639C27.433 19.3253 29.0406 11.9666 28.8738 8.4546C22.6457 6.603 18.5145 9.13415 17.2273 10.6312C15.8336 2.27847 7.21191 0.113008 3.07531 0.0743631C2.49074 1.72531 1.44188 5.84335 1.92301 9.108C2.40413 12.3726 4.00819 14.6999 4.75008 15.4554C5.33174 16.0704 6.86781 17.4572 8.3589 18.0848C9.84999 18.7123 10.4555 18.7332 10.5719 18.6651C10.8969 18.5533 11.6228 17.9969 11.9262 16.6664C12.2296 15.336 11.5634 14.8845 11.1923 14.8251C10.2965 14.7722 8.15206 13.9824 6.74069 11.247C5.32932 8.51165 5.60078 5.50501 5.91293 4.34361C9.49088 4.64512 11.7656 7.34913 12.4557 8.66345C13.3509 10.6266 14.8651 15.2334 13.7603 17.9548C12.6554 20.6761 9.23283 21.3577 7.65964 21.3583C7.43679 21.3264 6.57479 21.2716 4.9096 21.308Z" fill="#007A4F"/>
<path d="M0.543866 29.1139C0.867919 28.8191 3.9777 28.2368 6.22769 28.1377C9.66083 27.9865 11.9402 28.9567 14.9297 29.4447C17.9192 29.9326 19.5217 30.0425 22.4016 29.5699C24.7768 29.1801 27.6495 27.6021 28.2707 27.6875C28.8919 27.7728 28.7332 30.5866 28.4164 31.0495C28.0996 31.5123 24.9316 32.6087 22.5522 33.044C19.2702 33.6443 17.334 33.2701 14.0108 32.8528C11.0271 32.4781 9.39206 31.7163 6.38556 31.7799C4.14126 31.8273 0.869838 32.7487 0.694451 32.5879C-0.306481 31.6702 0.219813 29.4086 0.543866 29.1139Z" fill="#80CA7B"/>
<path d="M42.5796 9.21321H48.7339C49.4851 9.21321 50.128 9.41546 50.6625 9.81996C51.2115 10.21 51.6305 10.7229 51.9194 11.3585C52.2083 11.9942 52.3528 12.666 52.3528 13.3738C52.3528 14.0817 52.2011 14.7824 51.8977 15.4758C51.6088 16.1693 51.2043 16.8049 50.6842 17.3828C50.1641 17.9462 49.5646 18.4013 48.8856 18.748C48.2066 19.0803 47.477 19.2464 46.6969 19.2464H42.883L41.7562 24.5989H39.3075L42.5796 9.21321ZM47.022 17.1011C47.3831 17.1011 47.7371 17.0072 48.0838 16.8194C48.4305 16.6171 48.7339 16.3571 48.9939 16.0392C49.254 15.707 49.4562 15.3314 49.6007 14.9124C49.7596 14.4935 49.8391 14.0456 49.8391 13.5689C49.8391 13.121 49.7596 12.7382 49.6007 12.4204C49.4562 12.0881 49.254 11.828 48.9939 11.6402C48.7339 11.4524 48.4377 11.3585 48.1055 11.3585H44.5733L43.3381 17.1011H47.022ZM57.2629 24.7506C56.1649 24.7506 55.1248 24.5772 54.1424 24.2305C53.1745 23.8693 52.3366 23.3492 51.6287 22.6703L53.2106 20.5899C53.3262 20.7777 53.5212 20.9872 53.7957 21.2184C54.0702 21.4351 54.4097 21.6445 54.8142 21.8468C55.2187 22.049 55.6665 22.2224 56.1577 22.3669C56.6634 22.4969 57.1979 22.5619 57.7613 22.5619C58.4403 22.5619 59.0182 22.468 59.4949 22.2802C59.9716 22.0924 60.3328 21.8251 60.5784 21.4784C60.8384 21.1317 60.9685 20.7127 60.9685 20.2215C60.9685 19.8026 60.824 19.4559 60.5351 19.1814C60.2461 18.9069 59.8416 18.6758 59.3215 18.4879C58.8159 18.3001 58.2164 18.1051 57.5229 17.9029C56.7573 17.6717 56.1072 17.4189 55.5726 17.1444C55.0526 16.8555 54.6553 16.5088 54.3808 16.1043C54.1208 15.6997 53.9907 15.2013 53.9907 14.609C53.9907 13.7422 54.1569 12.9693 54.4891 12.2903C54.8359 11.6113 55.3054 11.0335 55.8977 10.5567C56.5044 10.08 57.1907 9.71884 57.9563 9.47325C58.7365 9.22765 59.5527 9.10486 60.405 9.10486C61.0696 9.10486 61.6836 9.18431 62.247 9.34323C62.8249 9.48769 63.3449 9.68995 63.8072 9.94998C64.2695 10.21 64.674 10.5062 65.0207 10.8385L63.5038 12.8321C63.4172 12.6732 63.2582 12.507 63.0271 12.3337C62.8104 12.1459 62.5359 11.9725 62.2036 11.8136C61.8858 11.6547 61.5247 11.5247 61.1201 11.4235C60.7301 11.3224 60.3184 11.2719 59.885 11.2719C59.1626 11.2719 58.5631 11.3802 58.0864 11.5969C57.6096 11.8136 57.2484 12.1098 57.0029 12.4854C56.7717 12.861 56.6561 13.2944 56.6561 13.7856C56.6561 14.1612 56.7717 14.4718 57.0029 14.7174C57.2484 14.963 57.5952 15.1724 58.043 15.3458C58.5053 15.5047 59.0687 15.6781 59.7333 15.8659C60.5423 16.0826 61.2357 16.3354 61.8136 16.6243C62.4059 16.9133 62.8682 17.2889 63.2005 17.7512C63.5327 18.199 63.6989 18.7769 63.6989 19.4848C63.6989 20.3949 63.5255 21.1895 63.1788 21.8685C62.8321 22.533 62.3553 23.082 61.7486 23.5154C61.1418 23.9343 60.4484 24.2449 59.6683 24.4472C58.9026 24.6494 58.1008 24.7506 57.2629 24.7506ZM68.3762 9.21321H74.5305C75.2817 9.21321 75.9246 9.41546 76.4591 9.81996C77.0081 10.21 77.427 10.7229 77.7159 11.3585C78.0049 11.9942 78.1493 12.666 78.1493 13.3738C78.1493 14.0817 77.9977 14.7824 77.6943 15.4758C77.4053 16.1693 77.0008 16.8049 76.4808 17.3828C75.9607 17.9462 75.3611 18.4013 74.6822 18.748C74.0032 19.0803 73.2736 19.2464 72.4935 19.2464H68.6796L67.5527 24.5989H65.104L68.3762 9.21321ZM72.8185 17.1011C73.1797 17.1011 73.5336 17.0072 73.8804 16.8194C74.2271 16.6171 74.5305 16.3571 74.7905 16.0392C75.0505 15.707 75.2528 15.3314 75.3973 14.9124C75.5562 14.4935 75.6356 14.0456 75.6356 13.5689C75.6356 13.121 75.5562 12.7382 75.3973 12.4204C75.2528 12.0881 75.0505 11.828 74.7905 11.6402C74.5305 11.4524 74.2343 11.3585 73.902 11.3585H70.3698L69.1346 17.1011H72.8185ZM84.208 24.7072C83.0089 24.7072 82.041 24.4761 81.3042 24.0138C80.5674 23.5515 80.0329 22.9303 79.7006 22.1502C79.3828 21.3701 79.2239 20.5033 79.2239 19.5498C79.2239 19.1308 79.2455 18.7191 79.2889 18.3146C79.3467 17.8956 79.4261 17.4622 79.5273 17.0144L81.1742 9.21321H83.6229L81.9543 17.0144C81.8821 17.39 81.8243 17.7512 81.7809 18.0979C81.7376 18.4446 81.7159 18.7841 81.7159 19.1164C81.7159 19.7665 81.8098 20.3443 81.9976 20.85C82.1854 21.3556 82.496 21.7601 82.9294 22.0635C83.3628 22.3669 83.9407 22.5186 84.663 22.5186C85.4143 22.5186 86.0716 22.3669 86.635 22.0635C87.2129 21.7457 87.704 21.3267 88.1086 20.8066C88.5131 20.2721 88.8453 19.6798 89.1054 19.0297C89.3799 18.3796 89.5893 17.7078 89.7338 17.0144L91.3807 9.21321H93.8294L92.1608 17.0144C91.9441 18.069 91.6119 19.0658 91.164 20.0048C90.7306 20.9294 90.1889 21.7457 89.5388 22.4536C88.8887 23.147 88.1158 23.696 87.2201 24.1005C86.3388 24.505 85.3348 24.7072 84.208 24.7072ZM93.177 24.5989L93.762 21.8251H95.7557L95.1489 24.5989H93.177ZM101.431 9.21321H111.183L110.728 11.3585H103.425L102.45 15.9526H108.561L108.127 17.9679H102.016L100.608 24.5989H98.1592L101.431 9.21321ZM116.663 9.21321H118.809L121.279 24.5989H118.722L118.115 20.4166H112.589L110.227 24.5989H107.67L116.663 9.21321ZM118.029 18.618L117.162 12.0086L113.391 18.618H118.029ZM123.152 24.5989L126.424 9.21321H132.816C133.568 9.21321 134.21 9.41546 134.745 9.81996C135.294 10.21 135.706 10.7229 135.98 11.3585C136.269 11.9942 136.414 12.666 136.414 13.3738C136.414 13.9517 136.312 14.5223 136.11 15.0858C135.922 15.6492 135.648 16.1765 135.287 16.6677C134.94 17.1589 134.528 17.585 134.052 17.9462C133.589 18.3074 133.084 18.5746 132.535 18.748L134.702 24.5989H131.95L129.956 19.2464H126.727L125.6 24.5989H123.152ZM131.104 17.1011C131.466 17.1011 131.812 17.0072 132.145 16.8194C132.477 16.6171 132.773 16.3498 133.033 16.0176C133.308 15.6853 133.517 15.3169 133.662 14.9124C133.82 14.4935 133.9 14.0673 133.9 13.6339C133.9 13.2005 133.828 12.8176 133.683 12.4854C133.539 12.1387 133.336 11.8642 133.076 11.6619C132.831 11.4597 132.542 11.3585 132.21 11.3585H128.417L127.182 17.1011H131.104ZM140.221 9.21321H142.822L145.552 18.618L152.292 9.21321H154.87L151.598 24.5989H149.149L151.511 13.5255L145.531 21.9118H144.187L141.76 13.5255L139.398 24.5989H136.949L140.221 9.21321Z" fill="#007A4F"/>
</svg>
